<svg width="30" height="325" viewBox="0 0 30 325" fill="none" xmlns="http://www.w3.org/2000/svg">
<path d="M15 0.452995L3.45299 12L15 23.547L26.547 12L15 0.452995ZM13.5858 324.414C14.3668 325.195 15.6332 325.195 16.4142 324.414L29.1421 311.686C29.9232 310.905 29.9232 309.639 29.1421 308.858C28.3611 308.077 27.0947 308.077 26.3137 308.858L15 320.172L3.68628 308.858C2.90523 308.077 1.6389 308.077 0.857851 308.858C0.0768028 309.639 0.0768027 310.905 0.857851 311.686L13.5858 324.414ZM13 12L13 323L17 323L17 12L13 12Z" fill="black"/>
</svg>
